<svg id="Layer_1" data-name="Layer 1" xmlns="http://www.w3.org/2000/svg" viewBox="0 0 962.55 222.22"><defs><style>.cls-1{fill:#cddddd;}</style></defs><path class="cls-1" d="M145.75,93.6l-29.29,29.45a39.76,39.76,0,0,0-6-11.06,40.62,40.62,0,0,0-8.57-8.28,37.52,37.52,0,0,0-21.75-6.88,36.21,36.21,0,0,0-15.46,3.37,37.76,37.76,0,0,0-12.59,9.44,45.36,45.36,0,0,0-8.43,14.43,53.08,53.08,0,0,0-3.07,18.46,38.61,38.61,0,0,0,3.07,15.38,40.27,40.27,0,0,0,8.43,12.6A38.74,38.74,0,0,0,64.67,179a40.33,40.33,0,0,0,26.74,1.47,40.5,40.5,0,0,0,10.18-4.62,37.93,37.93,0,0,0,8.49-7.32,38.49,38.49,0,0,0,6.08-9.59l29.3,29.44a78.77,78.77,0,0,1-12.82,14.21A80.85,80.85,0,0,1,117,213.28,78.78,78.78,0,0,1,99.24,220a80.47,80.47,0,0,1-19.11,2.27A78.39,78.39,0,0,1,49,216,80.21,80.21,0,0,1,6.3,173.58,77,77,0,0,1,0,142.53a89.49,89.49,0,0,1,6.3-33.69A86.76,86.76,0,0,1,23.51,81.52,81.37,81.37,0,0,1,49,63.13,73.28,73.28,0,0,1,80.13,56.4a75.28,75.28,0,0,1,19.26,2.49,77.77,77.77,0,0,1,33.84,18.89A72.55,72.55,0,0,1,145.75,93.6Z"/><path class="cls-1" d="M314.79,219.29h-9.66L289.6,197.75a128.62,128.62,0,0,1-12.09,9.6,88.08,88.08,0,0,1-13.4,7.76,82.18,82.18,0,0,1-14.43,5.2,60,60,0,0,1-15,1.91,86.53,86.53,0,0,1-31.13-5.57,73.82,73.82,0,0,1-25.49-16.19,75.87,75.87,0,0,1-17.21-26q-6.3-15.37-6.3-35a87.55,87.55,0,0,1,6.3-33.62,80.24,80.24,0,0,1,17.21-26.29,77.72,77.72,0,0,1,25.49-17.06,79.92,79.92,0,0,1,31.13-6.08,60.89,60.89,0,0,1,15.09,1.9,78.69,78.69,0,0,1,14.5,5.27,91.18,91.18,0,0,1,13.4,7.91A110.55,110.55,0,0,1,289.6,81.3l15.53-18.6h9.66Zm-40.28-79.84a41.58,41.58,0,0,0-3.15-15.89,45.63,45.63,0,0,0-8.57-13.62,42.36,42.36,0,0,0-12.67-9.52,34.25,34.25,0,0,0-15.45-3.59,42.7,42.7,0,0,0-15.46,2.78,35.25,35.25,0,0,0-12.59,8.2,38.45,38.45,0,0,0-8.43,13.41,50.45,50.45,0,0,0-3.07,18.23,50.47,50.47,0,0,0,3.07,18.24,38.4,38.4,0,0,0,8.43,13.4,35.14,35.14,0,0,0,12.59,8.21,42.92,42.92,0,0,0,15.46,2.78,34.25,34.25,0,0,0,15.45-3.59A42.53,42.53,0,0,0,262.79,169a45.88,45.88,0,0,0,8.57-13.62A41.59,41.59,0,0,0,274.51,139.45Z"/><path class="cls-1" d="M385.25,219.29h-40V62.4h9.67L368.12,81A70.7,70.7,0,0,1,415.58,62.7h35.3v39.84h-35.3A30.33,30.33,0,0,0,394,111.33a30.44,30.44,0,0,0-8.79,21.53Z"/><path class="cls-1" d="M626.51,139.45a87.3,87.3,0,0,1-6.3,33.69,80,80,0,0,1-17.13,26.15,76.39,76.39,0,0,1-25.42,16.92,81.35,81.35,0,0,1-31.27,6,79.29,79.29,0,0,1-56.62-23.29,80.4,80.4,0,0,1-17.21-26.15,86,86,0,0,1-6.3-33.33V0H506.4V73.24a36.35,36.35,0,0,1,7.83-7.32,46.52,46.52,0,0,1,10-5.28,66,66,0,0,1,11.06-3.14,58.31,58.31,0,0,1,11.14-1.1,78.78,78.78,0,0,1,31.27,6.22A77.72,77.72,0,0,1,603.08,80a82.92,82.92,0,0,1,17.13,26.29A85.64,85.64,0,0,1,626.51,139.45Zm-40.28,0a45,45,0,0,0-3.15-16.92A42.58,42.58,0,0,0,574.51,109a39.42,39.42,0,0,0-12.67-8.93,37.59,37.59,0,0,0-15.45-3.22,34.32,34.32,0,0,0-15.46,3.59,42.48,42.48,0,0,0-12.67,9.52,44.44,44.44,0,0,0-8.49,13.62,42.27,42.27,0,0,0-3.08,15.89,45.16,45.16,0,0,0,3.08,16.85,41.64,41.64,0,0,0,8.49,13.48,40.25,40.25,0,0,0,12.67,9,37.84,37.84,0,0,0,30.91,0,40.25,40.25,0,0,0,12.67-9,42.69,42.69,0,0,0,8.57-13.48A44.4,44.4,0,0,0,586.23,139.45Z"/><path class="cls-1" d="M800.24,139.45A84.65,84.65,0,0,1,794,172.19a82,82,0,0,1-17.14,26.22,80,80,0,0,1-25.42,17.43,79.48,79.48,0,0,1-62.4,0,80.27,80.27,0,0,1-42.7-43.65,84.47,84.47,0,0,1-6.3-32.74,85.74,85.74,0,0,1,6.3-33.1,81.08,81.08,0,0,1,17.21-26.3A80,80,0,0,1,689,62.7a77.61,77.61,0,0,1,31.13-6.3,82.06,82.06,0,0,1,31.27,5.93,75.58,75.58,0,0,1,25.42,16.84A80,80,0,0,1,794,105.4,88.83,88.83,0,0,1,800.24,139.45Zm-40.28,0a46.54,46.54,0,0,0-3.15-17.5,41.71,41.71,0,0,0-8.57-13.48,36.91,36.91,0,0,0-12.67-8.64,41.31,41.31,0,0,0-30.91,0,36.23,36.23,0,0,0-12.59,8.64A41.22,41.22,0,0,0,683.64,122a47.55,47.55,0,0,0-3.07,17.5,45.35,45.35,0,0,0,3.07,16.85,42.18,42.18,0,0,0,8.43,13.48,39.36,39.36,0,0,0,12.59,9,36.91,36.91,0,0,0,15.46,3.3A39.17,39.17,0,0,0,735.57,179a38.36,38.36,0,0,0,12.67-8.64,40.56,40.56,0,0,0,8.57-13.48A46.69,46.69,0,0,0,760,139.45Z"/><path class="cls-1" d="M862.35,219.29h-40V62.4H832l13.18,15.24a70.35,70.35,0,0,1,47.47-18.31,67.78,67.78,0,0,1,27.1,5.49A70.14,70.14,0,0,1,942,79.91a71.51,71.51,0,0,1,15,22.41,68.66,68.66,0,0,1,5.49,27.32v89.65h-40V129.64A29.29,29.29,0,0,0,920.21,118a30.13,30.13,0,0,0-6.44-9.59,30.7,30.7,0,0,0-9.52-6.45,28.9,28.9,0,0,0-11.57-2.34,30,30,0,0,0-28,18.38,29.29,29.29,0,0,0-2.35,11.65Z"/></svg>